<?xml version="1.0" encoding="UTF-8"?>
<svg id="Capa_1" data-name="Capa 1" xmlns="http://www.w3.org/2000/svg" viewBox="0 0 512 512">
  <defs>
    <style>
      .cls-1 {
        fill: #fff;
      }

      .cls-2 {
        fill: #575f63;
      }
    </style>
  </defs>
  <circle class="cls-2" cx="257.65" cy="256" r="256"/>
  <g>
    <path class="cls-1" d="M355.68,243.73c-7.33-1.74-13.97-4.34-21.56-5.36-62.17-8.43-113.76,45.03-95.28,106.69h-102.69c-6.55,0-15.97-11.29-15.97-17.8v-36.06h52.94c10.13,23.75,46.19,8.85,36.7-15.24-6.77-17.17-31.59-15.13-38.06,1.55h-50.2l-1.37-1.37v-48.38l1.37-1.37h94.93c6.68,14.61,26.99,16.5,35.9,3.04,12.13-18.3-10.86-39.63-29-26.26-3.8,2.8-4.81,7-7.82,10.44h-94.02l-1.37-1.37v-41.53h167.96c8.86,23.73,45.35,11.4,37.17-13.89-5.6-17.31-32.36-17.07-37.17.2H120.18v-18.71c0-.36,1.9-6,2.28-6.85,2.85-6.35,9.52-10.37,16.4-10.99h200.88c5.51,1.34,10.86,4.18,13.58,9.25.41.76,2.37,5.53,2.37,5.85v108.17Z"/>
    <path class="cls-1" d="M379.09,365.73c-31.97,37.33-95.03,33.81-121.11-8.33-37.59-60.73,28.41-127.49,91.93-101.97,43.44,17.45,60.46,73.77,29.18,110.3ZM357.24,282.25l-49.48,49.07c-7.86-3.67-17.25-23.99-26.91-19.57-2.64,1.21-13.29,12.04-9.59,15.95,7.01,3.5,31.97,34.05,36.56,34.72,1.09.16,2.16.05,3.13-.5l62.31-62.75c1-2.29,1.11-3.56-.17-5.75-.43-.73-10.31-10.56-11.02-10.88-1.53-.7-3.22-.78-4.82-.3Z"/>
  </g>
</svg>