<?xml version="1.0" encoding="UTF-8"?>
<svg id="Capa_1" data-name="Capa 1" xmlns="http://www.w3.org/2000/svg" viewBox="0 0 400.21 266.09">
  <defs>
    <style>
      .cls-1 {
        fill: #fff;
      }
    </style>
  </defs>
  <path class="cls-1" d="M259.3,78.91c-4.43-1.05-8.44-2.62-13.02-3.24-37.54-5.09-68.7,27.19-57.54,64.43h-62.02c-3.95,0-9.65-6.82-9.65-10.75v-21.77h31.97c6.12,14.34,27.89,5.34,22.16-9.21-4.09-10.37-19.08-9.14-22.99.94h-30.32l-.83-.83v-29.22l.83-.83h57.33c4.03,8.82,16.3,9.96,21.68,1.84,7.33-11.05-6.56-23.93-17.51-15.86-2.29,1.69-2.9,4.23-4.72,6.3h-56.78l-.83-.83v-25.08h101.43c5.35,14.33,27.39,6.88,22.45-8.39-3.38-10.45-19.54-10.31-22.45.12h-101.43v-11.3c0-.22,1.14-3.62,1.38-4.14,1.72-3.83,5.75-6.26,9.9-6.63h121.31c3.32.81,6.56,2.52,8.2,5.59.25.46,1.43,3.34,1.43,3.53v65.32Z"/>
  <path class="cls-1" d="M273.44,152.58c-19.31,22.54-57.39,20.42-73.14-5.03-22.7-36.68,17.16-76.99,55.52-61.58,26.23,10.54,36.51,44.55,17.62,66.61ZM260.25,102.17l-29.88,29.64c-4.75-2.22-10.42-14.49-16.25-11.82-1.6.73-8.02,7.27-5.79,9.63,4.23,2.11,19.3,20.56,22.08,20.97.66.1,1.3.03,1.89-.3l37.63-37.89c.6-1.39.67-2.15-.1-3.47-.26-.44-6.23-6.38-6.65-6.57-.92-.42-1.94-.47-2.91-.18Z"/>
  <path class="cls-1" d="M7.1,232.06c0-15.6,11.28-27.82,27.6-27.82,10.84,0,18.23,4.76,22.77,12.16l-3.81,1.83c-2.27,1.1-3.66.29-5.27-1.17-3.37-3.37-7.76-5.57-13.69-5.57-12.01,0-19.18,9.37-19.18,20.58s7.25,20.58,19.48,20.58c6.59,0,10.1-2.27,13.4-5.64,1.54-1.39,3-2.05,5.42-.95l3.73,1.68c-4.25,7.32-10.62,12.16-22.85,12.16-16.33,0-27.6-12.23-27.6-27.82Z"/>
  <path class="cls-1" d="M82.59,219.83c11.2,0,18.31,7.25,18.31,20.06,0,.95-.07,1.98-.07,2.78h-29.8c.44,5.71,5.49,10.32,13.18,10.32,3.73,0,6.52-1.03,8.2-1.9,1.76-.81,3.59-.88,5.05.73l1.76,1.83s-4.83,5.86-15.45,5.86c-12.96,0-20.65-8.2-20.65-19.77,0-13.03,9.23-19.92,19.48-19.92ZM71.02,237.11h21.89c-.29-6.37-3.51-10.76-10.4-10.76-6.37,0-11.13,4.25-11.5,10.76Z"/>
  <path class="cls-1" d="M109.39,220.56h3.88c2.2,0,3.81,1.61,3.81,3.81v4.61c2.2-4.17,6.15-8.71,14.21-8.71v4.25c0,2.2-1.39,3.88-3.73,4.03-1.24.22-2.71.66-3.81,1.32-4.1,1.83-6.66,6.59-6.66,14.28v10.84c0,2.2-1.61,3.81-3.81,3.81h-3.88v-38.22Z"/>
  <path class="cls-1" d="M151.49,252.78c.88,0,1.76-.15,2.34-.22,1.46-.22,3.08.36,3.51,2.34l.59,2.86s-2.86,1.76-7.61,1.76c-6.22,0-10.03-3.3-10.03-9.23v-22.7h-5.49v-3.22c0-2.2,1.61-3.81,3.81-3.81h1.68v-6c0-2.2,1.61-3.81,3.81-3.81h3.88v9.81h8.49v3.22c0,2.2-1.61,3.81-3.81,3.81h-4.69v20.8c0,2.93,1.17,4.25,3.51,4.39Z"/>
  <path class="cls-1" d="M169.28,206.65c2.71,0,4.69,2.05,4.69,4.54s-1.9,4.69-4.69,4.69-4.76-2.12-4.76-4.69c0-2.42,1.98-4.54,4.76-4.54ZM165.47,254.98v-34.42h3.81c2.2,0,3.81,1.61,3.81,3.81v34.41h-3.81c-2.2,0-3.81-1.61-3.81-3.81Z"/>
  <path class="cls-1" d="M194.9,212.22h-15.82v-2.86c0-2.56,1.61-4.17,4.17-4.17h36.03v2.86c0,2.49-1.68,4.17-4.17,4.17h-11.79v42.4c0,2.56-1.68,4.17-4.17,4.17h-4.25v-46.57Z"/>
  <path class="cls-1" d="M262.04,249.78v-44.74h3.88c2.2,0,3.81,1.61,3.81,3.81v40.05c0,1.98.15,3.66,2.12,3.73.81.07,1.39,0,2.27-.22,1.39-.22,2.78.37,3.22,2.34l.44,2.86s-2.64,1.76-7.03,1.76c-5.64,0-8.71-2.93-8.71-7.91v-1.68Z"/>
  <path class="cls-1" d="M299.9,219.83c11.2,0,18.31,7.25,18.31,20.06,0,.95-.07,1.98-.07,2.78h-29.8c.44,5.71,5.49,10.32,13.18,10.32,3.73,0,6.52-1.03,8.2-1.9,1.76-.81,3.59-.88,5.05.73l1.76,1.83s-4.83,5.86-15.45,5.86c-12.96,0-20.65-8.2-20.65-19.77,0-13.03,9.23-19.92,19.48-19.92ZM288.33,237.11h21.89c-.29-6.37-3.52-10.76-10.4-10.76-6.37,0-11.13,4.25-11.5,10.76Z"/>
  <path class="cls-1" d="M330.57,258.79h-3.88v-38.22h3.88c2.2,0,3.81,1.61,3.81,3.81v2.05c2.78-3.22,7.25-6.52,13.62-6.52,8.57,0,14.57,6.15,14.57,16.04v22.85h-3.88c-2.2,0-3.81-1.61-3.81-3.81v-17.57c0-6.74-3.52-10.47-9.45-10.47-6.66,0-11.06,4.69-11.06,11.06v16.99c0,2.2-1.61,3.81-3.81,3.81Z"/>
  <path class="cls-1" d="M386.66,252.78c.88,0,1.76-.15,2.34-.22,1.46-.22,3.07.36,3.51,2.34l.59,2.86s-2.86,1.76-7.62,1.76c-6.22,0-10.03-3.3-10.03-9.23v-22.7h-5.49v-3.22c0-2.2,1.61-3.81,3.81-3.81h1.68v-6c0-2.2,1.61-3.81,3.81-3.81h3.88v9.81h8.49v3.22c0,2.2-1.61,3.81-3.81,3.81h-4.69v20.8c0,2.93,1.17,4.25,3.52,4.39Z"/>
  <path class="cls-1" d="M249.92,219.54h-4.07v5.04c-3.46-3.14-8.15-5.04-13.67-5.04-11.83,0-19.88,8.77-19.88,19.73s8.04,19.88,19.88,19.88c5.51,0,10.21-1.92,13.67-5.09v1.14c0,2.1,1.7,3.8,3.8,3.8h3.87v-35.86c0-1.99-1.61-3.6-3.6-3.6h0ZM232.18,252.12c-7.82,0-12.12-5.34-12.12-12.86s4.31-12.72,12.12-12.72,12.12,5.26,12.12,12.72-4.31,12.86-12.12,12.86Z"/>
</svg>