<?xml version="1.0" encoding="UTF-8"?>
<svg id="Capa_1" data-name="Capa 1" xmlns="http://www.w3.org/2000/svg" viewBox="0 0 553.17 136.17">
  <defs>
    <style>
      .cls-1 {
        fill: #fff;
      }

      .cls-2 {
        fill: #fe9349;
      }
    </style>
  </defs>
  <path class="cls-1" d="M114.74,63.07c-3-.71-5.72-1.77-8.83-2.2-25.45-3.45-46.57,18.43-39.01,43.68H24.86c-2.68,0-6.54-4.62-6.54-7.29v-14.76h21.67c4.15,9.72,18.91,3.62,15.02-6.24-2.77-7.03-12.93-6.19-15.58.64h-20.55l-.56-.56v-19.81l.56-.56h38.86c2.73,5.98,11.05,6.76,14.7,1.25,4.97-7.49-4.44-16.22-11.87-10.75-1.55,1.15-1.97,2.87-3.2,4.27H18.89l-.56-.56v-17h68.76c3.63,9.72,18.57,4.67,15.22-5.69-2.29-7.09-13.25-6.99-15.22.08H18.33v-7.66c0-.15.78-2.46.93-2.8,1.17-2.6,3.9-4.25,6.71-4.5h82.24c2.25.55,4.44,1.71,5.56,3.79.17.31.97,2.26.97,2.39v44.28Z"/>
  <path class="cls-2" d="M124.32,113.01c-13.09,15.28-38.9,13.84-49.58-3.41-15.39-24.86,11.63-52.19,37.63-41.75,17.78,7.15,24.75,30.2,11.95,45.15ZM115.38,78.83l-20.26,20.09c-3.22-1.5-7.06-9.82-11.02-8.01-1.08.5-5.44,4.93-3.93,6.53,2.87,1.43,13.09,13.94,14.97,14.21.45.07.88.02,1.28-.2l25.51-25.69c.41-.94.45-1.46-.07-2.36-.17-.3-4.22-4.32-4.51-4.45-.63-.29-1.32-.32-1.97-.12Z"/>
  <path class="cls-1" d="M148.84,65.01c0-15.6,11.28-27.82,27.6-27.82,10.84,0,18.23,4.76,22.77,12.16l-3.81,1.83c-2.27,1.1-3.66.29-5.27-1.17-3.37-3.37-7.76-5.57-13.69-5.57-12.01,0-19.18,9.37-19.18,20.58s7.25,20.58,19.48,20.58c6.59,0,10.1-2.27,13.4-5.64,1.54-1.39,3-2.05,5.42-.95l3.73,1.68c-4.25,7.32-10.62,12.16-22.85,12.16-16.33,0-27.6-12.23-27.6-27.82Z"/>
  <path class="cls-1" d="M224.33,52.78c11.2,0,18.31,7.25,18.31,20.06,0,.95-.07,1.98-.07,2.78h-29.8c.44,5.71,5.49,10.32,13.18,10.32,3.73,0,6.52-1.03,8.2-1.9,1.76-.81,3.59-.88,5.05.73l1.76,1.83s-4.83,5.86-15.45,5.86c-12.96,0-20.65-8.2-20.65-19.77,0-13.03,9.23-19.92,19.48-19.92ZM212.76,70.06h21.89c-.29-6.37-3.51-10.76-10.4-10.76-6.37,0-11.13,4.25-11.5,10.76Z"/>
  <path class="cls-1" d="M251.12,53.51h3.88c2.2,0,3.81,1.61,3.81,3.81v4.61c2.2-4.17,6.15-8.71,14.21-8.71v4.25c0,2.2-1.39,3.88-3.73,4.03-1.24.22-2.71.66-3.81,1.32-4.1,1.83-6.66,6.59-6.66,14.28v10.84c0,2.2-1.61,3.81-3.81,3.81h-3.88v-38.22Z"/>
  <path class="cls-1" d="M293.23,85.73c.88,0,1.76-.15,2.34-.22,1.46-.22,3.08.36,3.51,2.34l.59,2.86s-2.86,1.76-7.61,1.76c-6.22,0-10.03-3.3-10.03-9.23v-22.7h-5.49v-3.22c0-2.2,1.61-3.81,3.81-3.81h1.68v-6c0-2.2,1.61-3.81,3.81-3.81h3.88v9.81h8.49v3.22c0,2.2-1.61,3.81-3.81,3.81h-4.69v20.8c0,2.93,1.17,4.25,3.51,4.39Z"/>
  <path class="cls-1" d="M311.02,39.6c2.71,0,4.69,2.05,4.69,4.54s-1.9,4.69-4.69,4.69-4.76-2.12-4.76-4.69c0-2.42,1.98-4.54,4.76-4.54ZM307.21,87.93v-34.42h3.81c2.2,0,3.81,1.61,3.81,3.81v34.41h-3.81c-2.2,0-3.81-1.61-3.81-3.81Z"/>
  <path class="cls-2" d="M336.64,45.17h-15.82v-2.86c0-2.56,1.61-4.17,4.17-4.17h36.03v2.86c0,2.49-1.68,4.17-4.17,4.17h-11.79v42.4c0,2.56-1.68,4.17-4.17,4.17h-4.25v-46.57Z"/>
  <path class="cls-2" d="M403.78,82.73v-44.74h3.88c2.2,0,3.81,1.61,3.81,3.81v40.05c0,1.98.15,3.66,2.12,3.73.81.07,1.39,0,2.27-.22,1.39-.22,2.78.37,3.22,2.34l.44,2.86s-2.64,1.76-7.03,1.76c-5.64,0-8.71-2.93-8.71-7.91v-1.68Z"/>
  <path class="cls-2" d="M441.64,52.78c11.2,0,18.31,7.25,18.31,20.06,0,.95-.07,1.98-.07,2.78h-29.8c.44,5.71,5.49,10.32,13.18,10.32,3.73,0,6.52-1.03,8.2-1.9,1.76-.81,3.59-.88,5.05.73l1.76,1.83s-4.83,5.86-15.45,5.86c-12.96,0-20.65-8.2-20.65-19.77,0-13.03,9.23-19.92,19.48-19.92ZM430.07,70.06h21.89c-.29-6.37-3.52-10.76-10.4-10.76-6.37,0-11.13,4.25-11.5,10.76Z"/>
  <path class="cls-2" d="M472.31,91.74h-3.88v-38.22h3.88c2.2,0,3.81,1.61,3.81,3.81v2.05c2.78-3.22,7.25-6.52,13.62-6.52,8.57,0,14.57,6.15,14.57,16.04v22.85h-3.88c-2.2,0-3.81-1.61-3.81-3.81v-17.57c0-6.74-3.52-10.47-9.45-10.47-6.66,0-11.06,4.69-11.06,11.06v16.99c0,2.2-1.61,3.81-3.81,3.81Z"/>
  <path class="cls-2" d="M528.4,85.73c.88,0,1.76-.15,2.34-.22,1.46-.22,3.07.36,3.51,2.34l.59,2.86s-2.86,1.76-7.62,1.76c-6.22,0-10.03-3.3-10.03-9.23v-22.7h-5.49v-3.22c0-2.2,1.61-3.81,3.81-3.81h1.68v-6c0-2.2,1.61-3.81,3.81-3.81h3.88v9.81h8.49v3.22c0,2.2-1.61,3.81-3.81,3.81h-4.69v20.8c0,2.93,1.17,4.25,3.52,4.39Z"/>
  <path class="cls-2" d="M391.66,52.49h-4.07v5.04c-3.46-3.14-8.15-5.04-13.67-5.04-11.83,0-19.88,8.77-19.88,19.73s8.04,19.88,19.88,19.88c5.51,0,10.21-1.92,13.67-5.09v1.14c0,2.1,1.7,3.8,3.8,3.8h3.87v-35.86c0-1.99-1.61-3.6-3.6-3.6h0ZM373.92,85.08c-7.82,0-12.12-5.34-12.12-12.86s4.31-12.72,12.12-12.72,12.12,5.26,12.12,12.72-4.31,12.86-12.12,12.86Z"/>
</svg>